# xmcd CD database file
#
# Track frame offsets:
#	150
#	20852
#	45079
#	67956
#	100283
#	118060
#	152262
#	178889
#	199516
#	223818
#	249995
#
# Disc length: 3684 seconds
#
# Revision: 0
# Processed by: cddbd v1.5.2PL0 Copyright (c) Steve Scherf et al.
# Submitted via: CDex 1.70beta2
#
DISCID=900e620b
DTITLE=Jimmy Smith - Dot Com Blues
DYEAR=2001
DGENRE=Blues
TTITLE0=Only In It For The Money
TTITLE1=8 Counts For Rita
TTITLE2=Strut
TTITLE3=C C Rider
TTITLE4=I Just Wanna Make Love To You
TTITLE5=Mood Indigo
TTITLE6=Over and Over
TTITLE7=Three O'Clock Blues
TTITLE8=Dot Com Blues
TTITLE9=Mr. Johnson
TTITLE10=Tuition Blues
EXTD=YEAR: 2001
EXTT0=
EXTT1=
EXTT2=
EXTT3=
EXTT4=
EXTT5=
EXTT6=
EXTT7=
EXTT8=
EXTT9=
EXTT10=
PLAYORDER=
